<svg xmlns="http://www.w3.org/2000/svg" viewBox="0 0 24 24" width="32" height="32">
  <defs>
    <linearGradient id="f" x1="12" y1="2" x2="12" y2="22" gradientUnits="userSpaceOnUse">
      <stop offset="0" stop-color="#ffb347"/>
      <stop offset="1" stop-color="#f5641e"/>
    </linearGradient>
  </defs>
  <rect width="24" height="24" rx="5" fill="#0b0d10"/>
  <path
    d="M8.5 14.5A2.5 2.5 0 0 0 11 12c0-1.38-.5-2-1-3-1.072-2.143-.224-4.054 2-6 .5 2.5 2 4.9 4 6.5 2 1.6 3 3.5 3 5.5a7 7 0 1 1-14 0c0-1.153.433-2.294 1-3a2.5 2.5 0 0 0 2.5 2.5z"
    fill="url(#f)"
  />
</svg>
